<?xml version="1.0" encoding="UTF-8" standalone="no"?>
<svg
   version="1.1"
   x="0px"
   y="0px"
   viewBox="0 0 24 24"
   xml:space="preserve"
   id="svg2"
   width="24"
   height="24"
   xmlns="http://www.w3.org/2000/svg"
   xmlns:svg="http://www.w3.org/2000/svg"><defs
     id="defs2" /><style
     type="text/css"
     id="style1">
	.st0{fill:#010101;}
</style><path
     class="st0"
     d="m 13.4,12 5.3,-5.3 c 0.4,-0.4 0.4,-1 0,-1.4 -0.4,-0.4 -1,-0.4 -1.4,0 L 12,10.6 6.7,5.3 c -0.4,-0.4 -1,-0.4 -1.4,0 -0.4,0.4 -0.4,1 0,1.4 l 5.3,5.3 -5.3,5.3 c -0.4,0.4 -0.4,1 0,1.4 0.2,0.2 0.4,0.3 0.7,0.3 0.3,0 0.5,-0.1 0.7,-0.3 l 5.3,-5.3 5.3,5.3 c 0.2,0.2 0.5,0.3 0.7,0.3 0.2,0 0.5,-0.1 0.7,-0.3 0.4,-0.4 0.4,-1 0,-1.4 z"
     id="path1"
     style="fill:#eb004d;fill-opacity:1" /></svg>
